<?xml version="1.0" encoding="utf-8"?>
<!-- Generator: Adobe Illustrator 16.0.0, SVG Export Plug-In . SVG Version: 6.00 Build 0)  -->
<!DOCTYPE svg PUBLIC "-//W3C//DTD SVG 1.1//EN" "http://www.w3.org/Graphics/SVG/1.1/DTD/svg11.dtd">
<svg version="1.1" id="Layer_1" xmlns="http://www.w3.org/2000/svg" xmlns:xlink="http://www.w3.org/1999/xlink" x="0px" y="0px"
	 width="960px" height="560px" viewBox="0 0 960 560" enable-background="new 0 0 960 560" xml:space="preserve">
<g>
	<path fill="#FFFFFF" d="M495.059,293.631c23.924,0,43.318-19.394,43.318-43.318c0-23.924-19.395-43.319-43.318-43.319
		s-43.317,19.395-43.317,43.319C451.741,274.237,471.135,293.631,495.059,293.631"/>
	<path fill="#083176" d="M552.572,226.352h10.298c5.755,0,12.217,1.11,12.217,8.28c0,7.773-7.471,7.976-13.226,7.976h-9.289V226.352
		z M536.82,284.506h15.752v-28.572h7.773l14.943,28.572h18.88l-18.173-30.187c10.096-1.816,15.447-9.592,15.447-19.587
		c0-16.659-12.317-21.708-26.957-21.708H536.82V284.506z M453.123,242.102h-27.967v14.539h12.822v11.611
		c-2.929,1.614-7.977,3.533-14.842,3.533c-13.429,0-22.213-9.693-22.213-23.02c0-13.327,8.784-23.021,22.213-23.021
		c7.977,0,13.125,2.322,17.366,6.765l11.106-12.116c-7.17-6.664-17.164-9.188-28.473-9.188c-22.313,0-38.568,14.64-38.568,37.56
		c0,22.918,16.255,37.558,38.568,37.558c10.5,0,20.697-2.02,29.986-6.865V242.102z M365.387,284.506h15.75v-71.482h-15.75V284.506z"
		/>
	<path fill="#083176" d="M594.105,293.059c-3.828-3.381-8.74-4.721-13.845-4.721c-8.868,0-17.226,5.039-17.226,14.674
		c0,15.057,21.182,10.59,21.182,18.885c0,3.189-3.637,4.721-6.891,4.721c-3.317,0-6.635-1.596-8.676-4.275l-7.082,7.785
		c4.273,3.955,9.377,5.678,15.184,5.678c9.314,0,17.418-4.785,17.418-14.865c0-15.822-20.799-10.527-20.799-18.758
		c0-3.381,3.892-4.658,6.699-4.658c2.424,0,5.613,0.957,7.209,3L594.105,293.059z M529.605,334.656h31.836v-9.188h-21.884v-9.188
		h19.586v-9.188h-19.586v-8.422h20.735v-9.188h-30.688V334.656z M502.299,297.908h6.507c3.638,0,7.72,0.701,7.72,5.23
		c0,4.912-4.721,5.041-8.357,5.041h-5.869V297.908z M492.346,334.656h9.953V316.6h4.912l9.443,18.057h11.93L517.1,315.58
		c6.381-1.148,9.762-6.063,9.762-12.377c0-10.527-7.783-13.719-17.035-13.719h-17.48V334.656z M473.779,316.664h-11.037
		l5.488-14.035L473.779,316.664z M444.879,334.656h10.975l3.764-9.57h17.545l3.892,9.57h11.228l-19.649-45.172h-8.229
		L444.879,334.656z M408.833,312.07c0-8.422,5.551-14.547,14.036-14.547c8.484,0,14.035,6.125,14.035,14.547
		s-5.551,14.547-14.035,14.547C414.384,326.617,408.833,320.492,408.833,312.07 M398.498,312.07
		c0,14.482,10.271,23.734,24.371,23.734c14.1,0,24.371-9.252,24.371-23.734s-10.271-23.732-24.371-23.732
		C408.769,288.338,398.498,297.588,398.498,312.07 M397.924,293.059c-3.828-3.381-8.741-4.721-13.846-4.721
		c-8.867,0-17.225,5.039-17.225,14.674c0,15.057,21.182,10.59,21.182,18.885c0,3.189-3.637,4.721-6.891,4.721
		c-3.318,0-6.636-1.596-8.677-4.275l-7.082,7.785c4.274,3.955,9.379,5.678,15.185,5.678c9.314,0,17.418-4.785,17.418-14.865
		c0-15.822-20.799-10.527-20.799-18.758c0-3.381,3.891-4.658,6.698-4.658c2.425,0,5.614,0.957,7.209,3L397.924,293.059z"/>
	<path fill="#083176" d="M521.376,284.855c-13.022,1.18-25.931,3.543-38.56,7.109c3.893,1.146,8.008,1.771,12.271,1.771
		C504.973,293.736,514.082,290.424,521.376,284.855 M513.843,256.793c-0.284,0.136-2.396,1.65-2.612,1.892
		c0.418,0.882,0.832,1.759,1.243,2.636c-1.073-0.377-1.973-1.228-3.114-1.473c-0.252,0.323-2.011,1.591-2.463,1.82
		c0.221-0.988,0.445-1.975,0.674-2.959c-0.357-0.102-2.6-1.225-2.922-1.52c1.158-0.082,2.318-0.156,3.478-0.224
		c0.28-0.935,0.565-1.866,0.854-2.793C510.642,257.407,509.25,256.911,513.843,256.793 M512.441,240.411
		c-0.304,0.123-2.572,1.541-2.807,1.774c0.441,0.896,0.879,1.787,1.313,2.679c-1.146-0.422-2.103-1.308-3.323-1.6
		c-0.272,0.311-2.165,1.5-2.653,1.711c0.245-0.977,0.494-1.947,0.747-2.917c-0.383-0.118-2.774-1.327-3.117-1.632
		c1.242-0.036,2.483-0.064,3.726-0.082c0.307-0.919,0.617-1.834,0.934-2.746C509.013,240.886,507.531,240.333,512.441,240.411
		 M499.49,250.305c-0.438,0.714-0.407,0.346-0.826,0.82c-0.053,0.111,0.173,2.127-0.551,3.338c-1.049,1.766-1.127,1.4-1.797,1.488
		c-0.733,0.098-0.496,0.082-1.238,0.443c-0.172,0.09-0.342,0.18-0.512,0.27c-1.524,1.024-0.336,1.259-0.914,2.123
		c-0.289,0.43-0.574,0.861-0.859,1.293c-1.036,0.963-0.1,0.258-0.682,1.014c-0.291-0.251-0.067-0.662-1.771-1.248
		c-0.646-0.221-0.3,0.266-0.492-0.129c-0.011-0.023-0.05-0.006-0.072-0.014c0.238-0.326,0.32-0.633,0.619-0.948
		c0.276-0.291,0.555-0.382,0.838-0.647c-0.17-1.064-0.146-0.152-0.477-0.923c-0.428-0.993,0.003-0.229-0.591-0.69
		c-0.226-0.174-0.269-0.311-0.421-0.508c-0.354,0.004-0.707,0.01-1.062,0.016c-0.079-0.365-0.22-0.709-0.268-1.027
		c-0.06-0.414,0.042-0.559-0.039-0.863c-0.241-0.902-1.372-0.818-1.479-0.838c-0.684-1.156,0.498-0.949-2.307-1.439
		c-0.423-0.072-0.539-0.088-0.883-0.154c-0.238-0.518-0.229-0.752-0.52-1.068c-0.783,0.219-0.621,0.328-1.078,0.631
		c-0.672,0.443-0.512,0.14-1.26,0.406c-0.328-0.267-0.193-0.154-0.308-0.623c-1.263,0.699-1.854-0.748-1.854-1.005
		c0.006-1.493,0.709-1.516,1.514-1.821c0.054-1.18,0.17-1.211-0.491-2.059c0.205-0.76,0.315-0.057-0.077-0.871
		c0.684-0.063,0.827-0.193,1.386-0.328c0.187,0.186,0.372,0.371,0.558,0.557c1.508-0.541,0.867-0.536,1.549-0.955
		c-0.41-0.11-0.416,0.154-0.649-0.891c-0.007-0.031-0.021-0.047-0.019-0.07c0.593-0.026,0.378,0.262,1.205-0.084
		c0.484-0.2,0.673-0.479,1.162-0.727c0.299,0.617,0.441,0.23,0.44,0.875c-0.001,0.581-0.088,0.41,0.315,0.983
		c0.611-0.058,1.035-0.259,1.604-0.511c0.751-0.33-0.283-0.127,0.715-0.283c0.508-0.01,1.016-0.018,1.522-0.023
		c0.164-0.561,0.223-0.785,0.755-1.07c0.63,1.478,0.58,0.875,1.018,1.395c-0.709,0.909-0.711,1.255-1.17,1.457
		c1.832-0.326,0.129,0.328,1.389,0.111c0.744-0.125,0.775-0.488,1.326-0.754c0.039-0.006,1.465,0.133,1.916,0.535
		c0.098,0.125,0.196,0.25,0.295,0.373c0.543-0.355,0.684-0.123,1.422-0.043c0.777,0.084,0.908-0.091,1.611,0.125
		c1.354,0.42,0.397,0.686,2.545,0.916C501.504,249.067,500.117,249.284,499.49,250.305 M477.688,260.452
		c-0.464,0.758-1.947,1.768-2.267,2.479c0.558,0.927,1.11,1.854,1.661,2.78c-0.299-0.18-2.787-1.186-3.174-1.243
		c-0.332,0.224-2.078,2.099-2.324,2.392c0.066-1.097,0.138-2.191,0.214-3.283c-1.002-0.479-2.356-0.791-3.212-1.314
		c1.152-0.254,2.306-0.499,3.46-0.736c0.134-1.058,0.272-2.111,0.417-3.164c0.578,0.918,1.15,1.836,1.72,2.754
		C475.35,260.885,476.518,260.665,477.688,260.452 M473.621,242.708c-0.51,0.738-2.123,1.695-2.481,2.393
		c0.584,0.938,1.163,1.874,1.738,2.811c-0.318-0.188-2.979-1.262-3.394-1.33c-0.361,0.211-2.279,2.02-2.551,2.306
		c0.094-1.087,0.192-2.172,0.295-3.254c-1.07-0.505-2.52-0.853-3.431-1.396c1.245-0.22,2.491-0.431,3.737-0.632
		c0.164-1.046,0.334-2.089,0.508-3.13c0.604,0.93,1.203,1.857,1.799,2.784C471.102,243.067,472.361,242.882,473.621,242.708
		 M514.645,241.7c-0.141-1.811-0.281-3.621-0.422-5.432c7.514,0.252,14.998,0.836,22.438,1.73
		c-5.325-17.925-21.918-31.004-41.572-31.004c-23.954,0-43.372,19.418-43.372,43.372c0,16.219,8.91,30.351,22.097,37.791
		c17.521-5.281,35.578-8.283,53.741-9.046c1.483-1.673,2.834-3.461,4.047-5.35c-20.091,0.109-40.155,2.914-59.646,8.427
		c-0.549-2.008-1.1-4.019-1.648-6.027c21.012-5.558,42.598-8.043,64.116-7.524c0.765-1.642,1.433-3.337,1.987-5.082
		c-6.684-0.327-13.383-0.374-20.077-0.126c-0.142-1.811-0.282-3.621-0.423-5.432c7.268-0.156,14.531,0.029,21.771,0.533
		c0.315-1.65,0.533-3.332,0.654-5.043c-7.589-0.658-15.212-0.975-22.847-0.922c-0.141-1.811-0.28-3.621-0.422-5.433
		c7.808,0.056,15.596,0.489,23.344,1.272c-0.078-1.746-0.264-3.466-0.541-5.152C530.166,242.388,522.418,241.862,514.645,241.7"/>
	<g opacity="0.63">
		<g>
			<defs>
				<rect id="SVGID_1_" x="364.387" y="205.994" width="230.782" height="130.811"/>
			</defs>
			<clipPath id="SVGID_2_">
				<use xlink:href="#SVGID_1_"  overflow="visible"/>
			</clipPath>
			<g clip-path="url(#SVGID_2_)">
				<defs>
					<path id="SVGID_3_" d="M568.648,322.342l-7.08,7.783c4.273,3.957,9.377,5.68,15.184,5.68c9.314,0,17.417-4.785,17.417-14.865
						c0-15.822-20.798-10.527-20.798-18.758c0-3.381,3.891-4.656,6.699-4.656c2.424,0,5.613,0.957,7.209,2.998l6.826-7.465
						c-3.828-3.383-8.74-4.723-13.845-4.723c-8.868,0-17.226,5.041-17.226,14.674c0,15.059,21.182,10.592,21.182,18.885
						c0,3.191-3.637,4.723-6.891,4.723C574.009,326.617,570.691,325.021,568.648,322.342 M560.292,289.486h-30.687v45.17h31.836
						v-9.188h-21.885v-9.188h19.588v-9.188h-19.588v-8.422h20.735V289.486z M502.299,297.906h6.508c3.637,0,7.719,0.703,7.719,5.232
						c0,4.912-4.721,5.039-8.357,5.039h-5.869V297.906z M492.346,293.645v41.012h9.953V316.6h4.912l9.443,18.057h11.93L517.1,315.58
						c6.381-1.148,9.762-6.063,9.762-12.377c0-9.129-5.855-12.736-13.443-13.535c2.831-1.324,5.499-2.936,7.958-4.813
						c-9.722,0.881-19.378,2.422-28.901,4.631h-0.129v0.027c-3.191,0.742-6.369,1.559-9.529,2.451
						C485.868,292.863,489.057,293.436,492.346,293.645 M462.743,316.664l5.487-14.035l5.549,14.035H462.743z M464.402,289.486
						l-19.523,45.17h10.975l3.764-9.57h17.545l3.891,9.57h11.229l-19.65-45.17H464.402z M408.833,312.07
						c0-8.422,5.55-14.545,14.036-14.545c8.484,0,14.035,6.123,14.035,14.545s-5.551,14.547-14.035,14.547
						C414.383,326.617,408.833,320.492,408.833,312.07 M398.497,312.07c0,14.482,10.272,23.734,24.372,23.734
						s24.371-9.252,24.371-23.734s-10.271-23.734-24.371-23.734S398.497,297.588,398.497,312.07 M365.387,284.506h15.75v-71.482
						h-15.75V284.506z M397.924,293.059c-3.828-3.383-8.74-4.723-13.845-4.723c-8.868,0-17.226,5.041-17.226,14.674
						c0,15.059,21.182,10.592,21.182,18.885c0,3.191-3.637,4.723-6.891,4.723c-3.317,0-6.636-1.596-8.677-4.275l-7.081,7.783
						c4.273,3.957,9.377,5.68,15.184,5.68c9.314,0,17.418-4.785,17.418-14.865c0-15.822-20.799-10.527-20.799-18.758
						c0-3.381,3.892-4.656,6.699-4.656c2.424,0,5.613,0.957,7.209,2.998L397.924,293.059z M575.087,234.631
						c0,7.773-7.471,7.976-13.226,7.976h-9.289v-16.255h10.298C568.625,226.352,575.087,227.462,575.087,234.631 M536.82,253.373
						c-7.088-0.571-14.205-0.856-21.331-0.808c-0.142-1.811-0.282-3.622-0.423-5.432c7.274,0.051,14.531,0.444,21.754,1.129V253.373
						z M513.843,256.793c-0.284,0.135-2.396,1.649-2.612,1.893c0.418,0.88,0.832,1.759,1.242,2.636
						c-1.072-0.378-1.972-1.229-3.113-1.474c-0.252,0.322-2.01,1.591-2.463,1.822c0.221-0.99,0.445-1.977,0.674-2.959
						c-0.358-0.104-2.6-1.227-2.922-1.521c1.158-0.083,2.318-0.158,3.478-0.224c0.28-0.936,0.565-1.867,0.854-2.795
						C510.641,257.407,509.25,256.91,513.843,256.793 M512.441,240.411c-0.303,0.124-2.572,1.542-2.807,1.775
						c0.442,0.894,0.879,1.787,1.313,2.678c-1.147-0.423-2.104-1.309-3.324-1.6c-0.272,0.311-2.166,1.5-2.653,1.711
						c0.245-0.975,0.494-1.948,0.747-2.918c-0.384-0.117-2.774-1.325-3.116-1.631c1.24-0.037,2.482-0.063,3.725-0.082
						c0.307-0.918,0.617-1.834,0.934-2.746C509.014,240.887,507.529,240.333,512.441,240.411 M499.491,250.305
						c-0.439,0.715-0.409,0.346-0.827,0.82c-0.053,0.111,0.173,2.127-0.551,3.338c-1.049,1.767-1.129,1.4-1.799,1.487
						c-0.731,0.099-0.494,0.083-1.236,0.444c-0.171,0.09-0.342,0.18-0.514,0.27c-1.522,1.025-0.334,1.26-0.912,2.124
						c-0.289,0.429-0.574,0.86-0.859,1.292c-1.037,0.963-0.1,0.258-0.682,1.014c-0.291-0.25-0.067-0.662-1.771-1.248
						c-0.646-0.221-0.3,0.267-0.492-0.129c-0.012-0.023-0.05-0.006-0.072-0.014c0.238-0.326,0.32-0.634,0.619-0.949
						c0.275-0.291,0.555-0.381,0.838-0.646c-0.172-1.064-0.146-0.152-0.477-0.924c-0.428-0.991,0.003-0.229-0.591-0.689
						c-0.226-0.175-0.269-0.311-0.42-0.508c-0.354,0.005-0.708,0.011-1.062,0.018c-0.08-0.367-0.222-0.711-0.269-1.029
						c-0.062-0.414,0.042-0.559-0.039-0.863c-0.241-0.902-1.372-0.816-1.479-0.838c-0.684-1.157,0.498-0.948-2.308-1.439
						c-0.422-0.072-0.539-0.088-0.882-0.154c-0.238-0.519-0.229-0.752-0.52-1.069c-0.783,0.22-0.621,0.33-1.078,0.631
						c-0.672,0.444-0.512,0.14-1.26,0.406c-0.328-0.265-0.192-0.152-0.309-0.622c-1.262,0.699-1.854-0.748-1.854-1.004
						c0.006-1.493,0.709-1.518,1.515-1.822c0.053-1.18,0.169-1.21-0.492-2.059c0.204-0.76,0.315-0.057-0.077-0.871
						c0.684-0.063,0.827-0.193,1.387-0.327c0.186,0.185,0.371,0.371,0.557,0.556c1.508-0.539,0.867-0.537,1.548-0.955
						c-0.41-0.109-0.416,0.153-0.647-0.892c-0.008-0.03-0.021-0.045-0.02-0.067c0.593-0.027,0.378,0.26,1.205-0.086
						c0.484-0.199,0.672-0.479,1.163-0.727c0.298,0.617,0.44,0.23,0.44,0.876c-0.002,0.581-0.089,0.409,0.314,0.981
						c0.609-0.057,1.035-0.259,1.604-0.51c0.752-0.331-0.283-0.126,0.715-0.283c0.508-0.01,1.016-0.017,1.522-0.023
						c0.164-0.561,0.224-0.784,0.755-1.071c0.631,1.479,0.579,0.875,1.018,1.396c-0.709,0.91-0.711,1.256-1.17,1.457
						c1.832-0.326,0.129,0.328,1.39,0.111c0.741-0.125,0.774-0.488,1.325-0.754c0.039-0.007,1.465,0.133,1.916,0.535
						c0.098,0.124,0.195,0.249,0.295,0.374c0.544-0.356,0.684-0.125,1.422-0.045c0.777,0.085,0.908-0.091,1.611,0.126
						c1.354,0.421,0.396,0.686,2.545,0.915C501.504,249.067,500.118,249.284,499.491,250.305 M477.686,260.452
						c-0.461,0.758-1.944,1.768-2.266,2.479c0.559,0.929,1.112,1.855,1.662,2.781c-0.298-0.18-2.787-1.186-3.174-1.244
						c-0.332,0.225-2.078,2.099-2.324,2.394c0.066-1.097,0.139-2.192,0.213-3.285c-1.002-0.479-2.355-0.791-3.211-1.313
						c1.152-0.254,2.305-0.5,3.46-0.736c0.134-1.057,0.272-2.112,0.417-3.164c0.577,0.919,1.15,1.836,1.721,2.753
						C475.35,260.885,476.518,260.665,477.686,260.452 M473.621,242.708c-0.51,0.738-2.123,1.695-2.48,2.393
						c0.584,0.938,1.162,1.875,1.737,2.811c-0.317-0.188-2.979-1.263-3.394-1.331c-0.362,0.212-2.279,2.021-2.551,2.308
						c0.094-1.088,0.192-2.172,0.295-3.254c-1.069-0.506-2.521-0.854-3.432-1.396c1.246-0.221,2.492-0.432,3.739-0.632
						c0.164-1.046,0.333-2.089,0.507-3.13c0.604,0.93,1.204,1.857,1.799,2.785C471.102,243.067,472.361,242.883,473.621,242.708
						 M594.169,284.506l-18.173-30.187c10.096-1.816,15.447-9.592,15.447-19.587c0-16.659-12.317-21.708-26.957-21.708H536.82
						v30.123c-7.357-0.797-14.754-1.293-22.176-1.447c-0.141-1.811-0.281-3.621-0.422-5.432c7.514,0.252,14.998,0.836,22.438,1.732
						c-5.325-17.928-21.917-31.007-41.573-31.007c-21.126,0-38.715,15.109-42.575,35.108h-27.355v14.539h12.822v11.611
						c-2.928,1.614-7.977,3.533-14.842,3.533c-13.429,0-22.213-9.693-22.213-23.02c0-13.327,8.784-23.021,22.213-23.021
						c7.977,0,13.125,2.322,17.366,6.765l11.106-12.116c-7.17-6.664-17.164-9.188-28.473-9.188c-22.313,0-38.568,14.64-38.568,37.56
						c0,22.918,16.255,37.558,38.568,37.558c10.5,0,20.697-2.02,29.986-6.865v-18.176c2.988,11.508,10.57,21.164,20.689,26.873
						c17.521-5.281,35.578-8.283,53.742-9.046c1.481-1.674,2.834-3.462,4.045-5.35c-20.09,0.109-40.154,2.914-59.645,8.427
						c-0.549-2.009-1.1-4.017-1.648-6.027c21.01-5.559,42.598-8.042,64.116-7.523c0.765-1.643,1.431-3.338,1.988-5.084
						c-6.685-0.326-13.384-0.373-20.078-0.125c-0.142-1.811-0.282-3.621-0.422-5.432c6.979-0.15,13.955,0.023,20.909,0.482v26.027
						h15.752v-28.572h7.773l14.943,28.572H594.169z"/>
				</defs>
				<clipPath id="SVGID_4_">
					<use xlink:href="#SVGID_3_"  overflow="visible"/>
				</clipPath>
				
					<radialGradient id="SVGID_5_" cx="62.6699" cy="576.9551" r="1" gradientTransform="matrix(114.3918 0 0 -114.3918 -6689.125 66270.3125)" gradientUnits="userSpaceOnUse">
					<stop  offset="0" style="stop-color:#FFFFFF"/>
					<stop  offset="1" style="stop-color:#231F20"/>
				</radialGradient>
				<rect x="365.387" y="206.994" clip-path="url(#SVGID_4_)" fill="url(#SVGID_5_)" width="228.782" height="128.811"/>
			</g>
		</g>
	</g>
	<path fill="#C22026" d="M513.843,256.793c-0.283,0.135-2.396,1.65-2.612,1.893c0.418,0.881,0.832,1.758,1.243,2.635
		c-1.073-0.377-1.974-1.228-3.114-1.473c-0.253,0.323-2.011,1.59-2.464,1.821c0.222-0.989,0.446-1.976,0.677-2.959
		c-0.359-0.103-2.602-1.226-2.924-1.521c1.159-0.082,2.318-0.158,3.479-0.224c0.279-0.935,0.563-1.866,0.853-2.793
		C510.642,257.407,509.25,256.909,513.843,256.793 M512.441,240.411c-0.304,0.123-2.572,1.541-2.806,1.775
		c0.44,0.893,0.879,1.786,1.313,2.678c-1.147-0.422-2.104-1.308-3.326-1.6c-0.271,0.311-2.164,1.5-2.652,1.711
		c0.245-0.976,0.494-1.947,0.747-2.918c-0.384-0.117-2.774-1.326-3.117-1.631c1.242-0.036,2.483-0.064,3.726-0.082
		c0.307-0.919,0.617-1.835,0.934-2.746C509.013,240.886,507.531,240.333,512.441,240.411 M503.039,248.434
		c2.018,6.538-2.991,12.057-9.047,13.799c-7.49,2.129-14.636-1.767-17.08-7.508c-2.983-7.01,1.789-13.23,8.723-14.769
		C493.979,238.091,501.367,242.998,503.039,248.434 M474.184,261.116c1.166-0.23,2.334-0.451,3.503-0.664
		c-0.463,0.758-1.946,1.767-2.267,2.479c0.559,0.927,1.111,1.854,1.662,2.78c-0.299-0.18-2.787-1.186-3.174-1.243
		c-0.332,0.224-2.078,2.097-2.324,2.392c0.066-1.097,0.138-2.191,0.214-3.283c-1.003-0.479-2.356-0.791-3.212-1.314
		c1.152-0.254,2.306-0.5,3.461-0.736c0.133-1.058,0.271-2.112,0.416-3.164C473.041,259.28,473.613,260.198,474.184,261.116
		 M473.621,242.708c-0.51,0.737-2.123,1.694-2.48,2.392c0.583,0.938,1.162,1.875,1.736,2.811c-0.316-0.188-2.978-1.262-3.394-1.332
		c-0.36,0.213-2.278,2.021-2.55,2.308c0.094-1.087,0.191-2.172,0.295-3.254c-1.07-0.505-2.52-0.853-3.431-1.396
		c1.245-0.221,2.491-0.431,3.737-0.633c0.164-1.045,0.334-2.089,0.508-3.129c0.604,0.93,1.203,1.857,1.8,2.784
		C471.102,243.067,472.361,242.882,473.621,242.708 M516.332,263.428c-0.141-1.811-0.28-3.621-0.422-5.431
		c-0.141-1.812-0.281-3.622-0.422-5.433c-0.14-1.811-0.281-3.621-0.422-5.433s-0.281-3.622-0.422-5.433s-0.281-3.621-0.422-5.432
		c-17.881-0.6-35.912,0.631-53.811,3.727c2.748,10.046,5.496,20.092,8.246,30.138C484.357,266.252,500.334,264.02,516.332,263.428"
		/>
	<path fill="#C22026" d="M574.009,353.697v-1.576h-3.981v-2.803h3.428v-1.516h-3.428v-2.713h3.981v-1.547h-5.646v10.154H574.009z
		 M567.357,345.061v-1.518h-6.143v1.518h2.232v8.637h1.662v-8.637H567.357z M560.296,353.697v-10.154h-1.663v6.404l-0.059,0.014
		l-1.195-2.275l-2.247-4.143H553.6v10.154h1.678v-6.436l0.045-0.014l1.064,2.086l2.393,4.363H560.296z M552.375,353.697v-1.576
		h-3.983v-2.803h3.429v-1.516h-3.429v-2.713h3.983v-1.547h-5.646v10.154H552.375z M540.631,343.732
		c-0.389,0.176-0.712,0.408-0.971,0.699c-0.258,0.293-0.446,0.629-0.568,1.008c-0.121,0.379-0.182,0.768-0.182,1.166v3.939
		c0,0.457,0.063,0.883,0.189,1.277c0.126,0.393,0.318,0.736,0.576,1.027c0.257,0.293,0.581,0.521,0.971,0.686
		c0.389,0.166,0.846,0.248,1.37,0.248c0.487,0,0.925-0.078,1.313-0.232c0.389-0.156,0.717-0.375,0.984-0.656s0.475-0.623,0.62-1.021
		s0.22-0.842,0.22-1.328v-2.406h-3.181v1.443h1.517v1.197c0,0.398-0.123,0.736-0.371,1.014c-0.248,0.275-0.615,0.416-1.103,0.416
		c-0.243,0-0.454-0.045-0.634-0.131c-0.18-0.088-0.331-0.205-0.453-0.352c-0.121-0.145-0.211-0.314-0.27-0.51
		s-0.088-0.4-0.088-0.613v-4.055c0-0.176,0.029-0.35,0.088-0.527c0.059-0.174,0.146-0.332,0.263-0.473
		c0.117-0.141,0.265-0.256,0.444-0.342c0.181-0.088,0.396-0.133,0.649-0.133c0.214,0,0.404,0.033,0.569,0.102
		c0.166,0.068,0.307,0.156,0.423,0.264c0.117,0.107,0.209,0.229,0.276,0.365c0.068,0.135,0.117,0.277,0.146,0.422l1.592-0.496
		c-0.078-0.32-0.203-0.619-0.373-0.896s-0.382-0.518-0.635-0.723c-0.253-0.203-0.547-0.361-0.883-0.475
		c-0.335-0.111-0.707-0.168-1.116-0.168C541.482,343.469,541.02,343.557,540.631,343.732 M530.96,345.848h0.073
		c0.009,0.088,0.037,0.232,0.086,0.432c0.05,0.197,0.101,0.41,0.154,0.633c0.053,0.225,0.103,0.438,0.146,0.643
		c0.044,0.203,0.075,0.35,0.095,0.438l0.512,2.027h-2.072l0.524-2.043L530.96,345.848z M532.973,353.697h1.766l-2.947-10.154h-1.604
		l-2.934,10.154h1.736c0.029-0.09,0.07-0.234,0.123-0.439c0.055-0.203,0.112-0.422,0.176-0.656c0.063-0.232,0.123-0.451,0.183-0.656
		c0.058-0.203,0.097-0.35,0.116-0.438h2.816L532.973,353.697z M520.238,343.543v10.154h2.916c0.332,0,0.652-0.029,0.963-0.09
		c0.312-0.057,0.599-0.152,0.861-0.283c0.262-0.131,0.496-0.309,0.7-0.533c0.204-0.223,0.369-0.504,0.496-0.846
		c0.155-0.418,0.237-0.922,0.248-1.51c0.01-0.588,0.015-1.295,0.015-2.123c0-0.67-0.013-1.271-0.037-1.801
		c-0.023-0.531-0.104-0.975-0.24-1.336c-0.223-0.582-0.578-1-1.065-1.254c-0.485-0.252-1.069-0.379-1.75-0.379H520.238z
		 M524.76,350.297c0,0.584-0.119,1.039-0.357,1.365s-0.668,0.488-1.291,0.488h-1.196v-7.061h1.182c0.622,0,1.056,0.199,1.298,0.598
		c0.243,0.398,0.365,0.943,0.365,1.635V350.297z M515.759,353.697v-1.576h-3.924v-8.578h-1.663v10.154H515.759z M505.373,345.848
		h0.072c0.01,0.088,0.039,0.232,0.088,0.432c0.049,0.197,0.1,0.41,0.152,0.633c0.055,0.225,0.102,0.438,0.146,0.643
		c0.044,0.203,0.074,0.35,0.095,0.438l0.511,2.027h-2.072l0.525-2.043L505.373,345.848z M507.386,353.697h1.765l-2.947-10.154
		h-1.604l-2.932,10.154h1.735c0.029-0.09,0.071-0.234,0.125-0.439c0.053-0.203,0.111-0.422,0.174-0.656
		c0.063-0.232,0.125-0.451,0.184-0.656c0.059-0.203,0.098-0.35,0.116-0.438h2.815L507.386,353.697z M499.113,343.543v7.148
		c0,0.457-0.133,0.818-0.4,1.088c-0.268,0.266-0.605,0.4-1.014,0.4c-0.486,0-0.854-0.156-1.102-0.467
		c-0.248-0.313-0.372-0.688-0.372-1.123v-7.047h-1.663v7.002c0,0.447,0.065,0.869,0.197,1.262c0.131,0.395,0.325,0.736,0.583,1.029
		c0.258,0.291,0.584,0.521,0.978,0.693c0.395,0.17,0.854,0.254,1.379,0.254c0.457,0,0.875-0.072,1.254-0.219
		c0.38-0.145,0.707-0.354,0.986-0.627c0.276-0.271,0.49-0.605,0.641-1c0.15-0.393,0.227-0.834,0.227-1.318v-7.076H499.113z
		 M486.846,343.543v10.154h2.917c0.331,0,0.652-0.029,0.963-0.09c0.312-0.057,0.599-0.152,0.861-0.283s0.496-0.309,0.7-0.533
		c0.203-0.223,0.369-0.504,0.496-0.846c0.156-0.418,0.238-0.922,0.248-1.51s0.015-1.295,0.015-2.123c0-0.67-0.013-1.271-0.037-1.801
		c-0.024-0.531-0.104-0.975-0.24-1.336c-0.224-0.582-0.579-1-1.065-1.254c-0.486-0.252-1.069-0.379-1.75-0.379H486.846z
		 M491.367,350.297c0,0.584-0.118,1.039-0.356,1.365c-0.239,0.326-0.669,0.488-1.291,0.488h-1.196v-7.061h1.182
		c0.621,0,1.055,0.199,1.298,0.598s0.364,0.943,0.364,1.635V350.297z M482.061,345.848h0.073c0.01,0.088,0.039,0.232,0.088,0.432
		c0.048,0.197,0.099,0.41,0.153,0.633c0.053,0.225,0.102,0.438,0.146,0.643c0.043,0.203,0.074,0.35,0.094,0.438l0.511,2.027h-2.072
		l0.526-2.043L482.061,345.848z M484.074,353.697h1.765l-2.946-10.154h-1.605l-2.932,10.154h1.736
		c0.029-0.09,0.07-0.234,0.124-0.439c0.053-0.203,0.11-0.422,0.175-0.656c0.063-0.232,0.124-0.451,0.182-0.656
		c0.059-0.203,0.098-0.35,0.117-0.438h2.815L484.074,353.697z M478.617,345.061v-1.518h-6.141v1.518h2.232v8.637h1.662v-8.637
		H478.617z M471.857,349.787c-0.084-0.303-0.223-0.574-0.416-0.818c-0.195-0.242-0.451-0.459-0.767-0.648s-0.713-0.357-1.188-0.504
		c-0.283-0.088-0.551-0.178-0.803-0.27c-0.253-0.092-0.472-0.197-0.656-0.314c-0.186-0.115-0.332-0.25-0.438-0.4
		s-0.16-0.328-0.16-0.531c0-0.361,0.117-0.66,0.351-0.898s0.568-0.357,1.006-0.357c0.369,0,0.695,0.074,0.978,0.219
		c0.282,0.146,0.535,0.375,0.759,0.688l1.27-1.066c-0.282-0.438-0.659-0.783-1.131-1.035c-0.473-0.254-1.088-0.381-1.846-0.381
		c-0.467,0-0.888,0.072-1.262,0.213c-0.375,0.143-0.697,0.342-0.97,0.6c-0.273,0.258-0.482,0.564-0.628,0.92
		s-0.219,0.742-0.219,1.162c0,0.381,0.049,0.719,0.146,1.016s0.255,0.561,0.475,0.789c0.219,0.229,0.498,0.432,0.838,0.605
		c0.34,0.176,0.754,0.342,1.24,0.498c0.262,0.078,0.506,0.16,0.729,0.248s0.413,0.193,0.569,0.314
		c0.154,0.121,0.276,0.266,0.364,0.43c0.087,0.166,0.132,0.367,0.132,0.602c0,0.379-0.109,0.697-0.328,0.957
		c-0.22,0.258-0.597,0.387-1.131,0.387c-0.447,0-0.828-0.105-1.139-0.314s-0.579-0.488-0.803-0.84l-1.37,0.992
		c0.301,0.512,0.719,0.93,1.254,1.252c0.535,0.324,1.211,0.484,2.028,0.484c1.031,0,1.828-0.264,2.392-0.795
		c0.563-0.529,0.847-1.256,0.847-2.182C471.98,350.428,471.939,350.088,471.857,349.787 M464.73,353.697v-1.576h-3.982v-2.803h3.428
		v-1.516h-3.428v-2.713h3.982v-1.547h-5.646v10.154H464.73z M452.476,350.762c0,0.447-0.138,0.801-0.415,1.061
		c-0.277,0.258-0.605,0.387-0.984,0.387c-0.535,0-0.914-0.166-1.139-0.498c-0.224-0.33-0.334-0.74-0.334-1.229l-0.016-3.887
		c0-0.156,0.023-0.322,0.072-0.498s0.13-0.338,0.242-0.49c0.11-0.15,0.262-0.277,0.451-0.379s0.426-0.154,0.707-0.154
		c0.282,0,0.514,0.057,0.693,0.168c0.18,0.113,0.324,0.246,0.431,0.402c0.107,0.156,0.183,0.32,0.226,0.49
		c0.045,0.17,0.065,0.318,0.065,0.445V350.762z M454.169,346.605c0-0.379-0.062-0.756-0.183-1.131
		c-0.121-0.373-0.312-0.709-0.569-1.006c-0.257-0.297-0.581-0.537-0.97-0.721c-0.39-0.186-0.852-0.279-1.387-0.279
		c-0.574,0-1.057,0.098-1.451,0.293c-0.394,0.195-0.715,0.443-0.963,0.744s-0.428,0.637-0.539,1.006
		c-0.113,0.371-0.168,0.734-0.168,1.094v3.838c0,0.447,0.059,0.873,0.176,1.275c0.115,0.404,0.299,0.76,0.547,1.066
		c0.248,0.305,0.57,0.549,0.97,0.729c0.397,0.18,0.875,0.27,1.429,0.27c0.457,0,0.877-0.072,1.256-0.219
		c0.379-0.145,0.707-0.357,0.984-0.635c0.277-0.275,0.491-0.609,0.643-0.998c0.149-0.389,0.226-0.828,0.226-1.313V346.605z
		 M440.367,343.543v10.154h2.918c0.33,0,0.652-0.029,0.964-0.09c0.311-0.057,0.598-0.152,0.86-0.283
		c0.262-0.131,0.496-0.309,0.7-0.533c0.204-0.223,0.369-0.504,0.496-0.846c0.155-0.418,0.238-0.922,0.248-1.51
		c0.009-0.588,0.015-1.295,0.015-2.123c0-0.67-0.013-1.271-0.037-1.801c-0.024-0.531-0.104-0.975-0.24-1.336
		c-0.225-0.582-0.579-1-1.065-1.254c-0.485-0.252-1.069-0.379-1.75-0.379H440.367z M444.891,350.297
		c0,0.584-0.119,1.039-0.357,1.365s-0.67,0.488-1.291,0.488h-1.196v-7.061h1.183c0.621,0,1.055,0.199,1.297,0.598
		c0.243,0.398,0.365,0.943,0.365,1.635V350.297z M435.584,345.848h0.072c0.01,0.088,0.039,0.232,0.088,0.432
		c0.049,0.197,0.1,0.41,0.152,0.633c0.055,0.225,0.103,0.438,0.146,0.643c0.044,0.203,0.074,0.35,0.095,0.438l0.511,2.027h-2.072
		l0.525-2.043L435.584,345.848z M437.597,353.697h1.765l-2.946-10.154h-1.605l-2.932,10.154h1.735
		c0.029-0.09,0.071-0.234,0.125-0.439c0.053-0.203,0.111-0.422,0.174-0.656c0.063-0.232,0.125-0.451,0.184-0.656
		c0.059-0.203,0.098-0.35,0.116-0.438h2.815L437.597,353.697z M432.141,345.061v-1.518h-6.142v1.518h2.231v8.637h1.663v-8.637
		H432.141z M423.475,343.543v7.148c0,0.457-0.133,0.818-0.4,1.088c-0.268,0.266-0.605,0.4-1.015,0.4
		c-0.485,0-0.853-0.156-1.101-0.467c-0.248-0.313-0.372-0.688-0.372-1.123v-7.047h-1.663v7.002c0,0.447,0.066,0.869,0.197,1.262
		c0.131,0.395,0.326,0.736,0.582,1.029c0.259,0.291,0.584,0.521,0.979,0.693c0.395,0.17,0.854,0.254,1.378,0.254
		c0.457,0,0.876-0.072,1.255-0.219c0.379-0.145,0.707-0.354,0.985-0.627c0.276-0.271,0.491-0.605,0.642-1
		c0.15-0.393,0.227-0.834,0.227-1.318v-7.076H423.475z M415.896,347.797c-0.238,0.287-0.605,0.428-1.102,0.428h-1.4v-3.135h1.387
		c0.496,0,0.865,0.133,1.108,0.398c0.242,0.266,0.364,0.65,0.364,1.154C416.254,347.127,416.135,347.512,415.896,347.797
		 M417.684,345.287c-0.146-0.395-0.355-0.721-0.627-0.979c-0.273-0.258-0.599-0.449-0.979-0.576
		c-0.379-0.127-0.807-0.189-1.283-0.189h-3.063v10.154h1.662v-3.896h1.488c0.505,0,0.947-0.08,1.327-0.24s0.692-0.381,0.94-0.664
		c0.248-0.281,0.437-0.611,0.563-0.992c0.126-0.379,0.189-0.787,0.189-1.225C417.902,346.145,417.83,345.68,417.684,345.287
		 M410.477,353.697v-1.576h-3.982v-2.803h3.429v-1.516h-3.429v-2.713h3.982v-1.547h-5.645v10.154H410.477z M396.982,343.543v10.154
		h2.918c0.332,0,0.651-0.029,0.963-0.09c0.312-0.057,0.599-0.152,0.861-0.283c0.262-0.131,0.496-0.309,0.7-0.533
		c0.204-0.223,0.369-0.504,0.496-0.846c0.155-0.418,0.237-0.922,0.248-1.51c0.009-0.588,0.014-1.295,0.014-2.123
		c0-0.67-0.012-1.271-0.036-1.801c-0.023-0.531-0.104-0.975-0.24-1.336c-0.225-0.582-0.58-1-1.065-1.254
		c-0.485-0.252-1.069-0.379-1.75-0.379H396.982z M401.506,350.297c0,0.584-0.119,1.039-0.357,1.365s-0.668,0.488-1.291,0.488h-1.197
		v-7.061h1.183c0.622,0,1.056,0.199,1.298,0.598c0.243,0.398,0.365,0.943,0.365,1.635V350.297z M390.39,350.762
		c0,0.447-0.139,0.801-0.416,1.061c-0.276,0.258-0.604,0.387-0.985,0.387c-0.535,0-0.914-0.166-1.138-0.498
		c-0.223-0.33-0.335-0.74-0.335-1.229l-0.015-3.887c0-0.156,0.024-0.322,0.073-0.498s0.129-0.338,0.24-0.49
		c0.112-0.15,0.264-0.277,0.452-0.379c0.19-0.102,0.425-0.154,0.708-0.154c0.282,0,0.514,0.057,0.693,0.168
		c0.179,0.113,0.322,0.246,0.43,0.402s0.182,0.32,0.227,0.49c0.043,0.17,0.065,0.318,0.065,0.445V350.762z M392.082,346.605
		c0-0.379-0.061-0.756-0.182-1.131c-0.123-0.373-0.313-0.709-0.57-1.006s-0.581-0.537-0.969-0.721
		c-0.391-0.186-0.853-0.279-1.387-0.279c-0.574,0-1.058,0.098-1.451,0.293c-0.395,0.195-0.716,0.443-0.964,0.744
		c-0.247,0.301-0.428,0.637-0.538,1.006c-0.113,0.371-0.168,0.734-0.168,1.094v3.838c0,0.447,0.057,0.873,0.174,1.275
		c0.117,0.404,0.299,0.76,0.547,1.066c0.248,0.305,0.572,0.549,0.971,0.729s0.875,0.27,1.43,0.27c0.457,0,0.875-0.072,1.254-0.219
		c0.381-0.145,0.709-0.357,0.985-0.635c0.276-0.275,0.491-0.609,0.642-0.998c0.151-0.389,0.227-0.828,0.227-1.313V346.605z"/>
</g>
</svg>
